<mxfile host="app.diagrams.net" modified="2024-05-06T16:01:29.663Z" agent="Mozilla/5.0 (Windows NT 10.0; Win64; x64) AppleWebKit/537.36 (KHTML, like Gecko) Chrome/124.0.0.0 Safari/537.36" etag="YNWdHuf4PfYP9iPEbzL0" version="24.3.1" type="device">
  <diagram name="Page-1" id="4IScAdLVQbyTblqfuar1">
    <mxGraphModel dx="2673" dy="1103" grid="1" gridSize="10" guides="1" tooltips="1" connect="1" arrows="1" fold="1" page="1" pageScale="1" pageWidth="850" pageHeight="1100" math="0" shadow="0">
      <root>
        <mxCell id="0" />
        <mxCell id="1" parent="0" />
        <mxCell id="3OqYs08iJ2TYGvWtHfqb-6" value="" style="edgeStyle=orthogonalEdgeStyle;rounded=0;orthogonalLoop=1;jettySize=auto;html=1;" parent="1" source="3OqYs08iJ2TYGvWtHfqb-1" target="3OqYs08iJ2TYGvWtHfqb-5" edge="1">
          <mxGeometry relative="1" as="geometry" />
        </mxCell>
        <mxCell id="3OqYs08iJ2TYGvWtHfqb-8" value="" style="edgeStyle=orthogonalEdgeStyle;rounded=0;orthogonalLoop=1;jettySize=auto;html=1;" parent="1" source="3OqYs08iJ2TYGvWtHfqb-1" target="3OqYs08iJ2TYGvWtHfqb-7" edge="1">
          <mxGeometry relative="1" as="geometry" />
        </mxCell>
        <mxCell id="3OqYs08iJ2TYGvWtHfqb-1" value="App" style="ellipse;whiteSpace=wrap;html=1;aspect=fixed;" parent="1" vertex="1">
          <mxGeometry x="280" y="90" width="80" height="80" as="geometry" />
        </mxCell>
        <mxCell id="3OqYs08iJ2TYGvWtHfqb-21" value="" style="edgeStyle=orthogonalEdgeStyle;rounded=0;orthogonalLoop=1;jettySize=auto;html=1;" parent="1" source="3OqYs08iJ2TYGvWtHfqb-5" target="3OqYs08iJ2TYGvWtHfqb-20" edge="1">
          <mxGeometry relative="1" as="geometry" />
        </mxCell>
        <mxCell id="3OqYs08iJ2TYGvWtHfqb-22" value="" style="edgeStyle=orthogonalEdgeStyle;rounded=0;orthogonalLoop=1;jettySize=auto;html=1;" parent="1" source="3OqYs08iJ2TYGvWtHfqb-5" target="3OqYs08iJ2TYGvWtHfqb-20" edge="1">
          <mxGeometry relative="1" as="geometry" />
        </mxCell>
        <mxCell id="3OqYs08iJ2TYGvWtHfqb-25" value="" style="edgeStyle=orthogonalEdgeStyle;rounded=0;orthogonalLoop=1;jettySize=auto;html=1;" parent="1" source="3OqYs08iJ2TYGvWtHfqb-5" target="3OqYs08iJ2TYGvWtHfqb-24" edge="1">
          <mxGeometry relative="1" as="geometry" />
        </mxCell>
        <mxCell id="3OqYs08iJ2TYGvWtHfqb-5" value="Local Clock" style="ellipse;whiteSpace=wrap;html=1;aspect=fixed;" parent="1" vertex="1">
          <mxGeometry x="80" y="190" width="80" height="80" as="geometry" />
        </mxCell>
        <mxCell id="3OqYs08iJ2TYGvWtHfqb-30" value="" style="edgeStyle=orthogonalEdgeStyle;rounded=0;orthogonalLoop=1;jettySize=auto;html=1;" parent="1" source="3OqYs08iJ2TYGvWtHfqb-7" target="3OqYs08iJ2TYGvWtHfqb-29" edge="1">
          <mxGeometry relative="1" as="geometry" />
        </mxCell>
        <mxCell id="3OqYs08iJ2TYGvWtHfqb-7" value="Clock List" style="ellipse;whiteSpace=wrap;html=1;aspect=fixed;" parent="1" vertex="1">
          <mxGeometry x="480" y="180" width="80" height="80" as="geometry" />
        </mxCell>
        <mxCell id="3OqYs08iJ2TYGvWtHfqb-52" style="edgeStyle=orthogonalEdgeStyle;rounded=0;orthogonalLoop=1;jettySize=auto;html=1;" parent="1" source="3OqYs08iJ2TYGvWtHfqb-9" target="3OqYs08iJ2TYGvWtHfqb-51" edge="1">
          <mxGeometry relative="1" as="geometry" />
        </mxCell>
        <mxCell id="3OqYs08iJ2TYGvWtHfqb-9" value="Modal" style="ellipse;whiteSpace=wrap;html=1;aspect=fixed;fillColor=#FFFFCC;" parent="1" vertex="1">
          <mxGeometry x="130" y="460" width="80" height="80" as="geometry" />
        </mxCell>
        <mxCell id="3OqYs08iJ2TYGvWtHfqb-38" value="" style="edgeStyle=orthogonalEdgeStyle;rounded=0;orthogonalLoop=1;jettySize=auto;html=1;" parent="1" source="3OqYs08iJ2TYGvWtHfqb-11" target="3OqYs08iJ2TYGvWtHfqb-12" edge="1">
          <mxGeometry relative="1" as="geometry">
            <Array as="points">
              <mxPoint x="980" y="270" />
            </Array>
          </mxGeometry>
        </mxCell>
        <mxCell id="3OqYs08iJ2TYGvWtHfqb-43" style="edgeStyle=orthogonalEdgeStyle;rounded=0;orthogonalLoop=1;jettySize=auto;html=1;entryX=1;entryY=0.5;entryDx=0;entryDy=0;" parent="1" source="3OqYs08iJ2TYGvWtHfqb-11" target="3OqYs08iJ2TYGvWtHfqb-42" edge="1">
          <mxGeometry relative="1" as="geometry" />
        </mxCell>
        <mxCell id="3OqYs08iJ2TYGvWtHfqb-50" style="edgeStyle=orthogonalEdgeStyle;rounded=0;orthogonalLoop=1;jettySize=auto;html=1;entryX=1;entryY=0.5;entryDx=0;entryDy=0;" parent="1" source="3OqYs08iJ2TYGvWtHfqb-11" target="3OqYs08iJ2TYGvWtHfqb-49" edge="1">
          <mxGeometry relative="1" as="geometry" />
        </mxCell>
        <mxCell id="3OqYs08iJ2TYGvWtHfqb-96" style="edgeStyle=orthogonalEdgeStyle;rounded=0;orthogonalLoop=1;jettySize=auto;html=1;entryX=1;entryY=0.5;entryDx=0;entryDy=0;" parent="1" source="3OqYs08iJ2TYGvWtHfqb-11" target="3OqYs08iJ2TYGvWtHfqb-95" edge="1">
          <mxGeometry relative="1" as="geometry" />
        </mxCell>
        <mxCell id="3OqYs08iJ2TYGvWtHfqb-11" value="R&lt;span style=&quot;background-color: initial;&quot;&gt;eUsable Components&lt;/span&gt;" style="ellipse;whiteSpace=wrap;html=1;aspect=fixed;fillColor=#FFFFCC;" parent="1" vertex="1">
          <mxGeometry x="940" y="90" width="80" height="80" as="geometry" />
        </mxCell>
        <mxCell id="3OqYs08iJ2TYGvWtHfqb-12" value="Clock Display &amp;amp; Labels" style="ellipse;whiteSpace=wrap;html=1;aspect=fixed;fillColor=#FFFFCC;" parent="1" vertex="1">
          <mxGeometry x="870" y="230" width="80" height="80" as="geometry" />
        </mxCell>
        <mxCell id="3OqYs08iJ2TYGvWtHfqb-20" value="Clock Display &amp;amp; Labels" style="ellipse;whiteSpace=wrap;html=1;aspect=fixed;fillColor=#FFFFCC;" parent="1" vertex="1">
          <mxGeometry x="30" y="340" width="80" height="80" as="geometry" />
        </mxCell>
        <mxCell id="3OqYs08iJ2TYGvWtHfqb-58" value="" style="edgeStyle=orthogonalEdgeStyle;rounded=0;orthogonalLoop=1;jettySize=auto;html=1;" parent="1" source="3OqYs08iJ2TYGvWtHfqb-24" target="3OqYs08iJ2TYGvWtHfqb-9" edge="1">
          <mxGeometry relative="1" as="geometry" />
        </mxCell>
        <mxCell id="3OqYs08iJ2TYGvWtHfqb-59" value="when Clicked Create or edit" style="edgeLabel;html=1;align=center;verticalAlign=middle;resizable=0;points=[];" parent="3OqYs08iJ2TYGvWtHfqb-58" vertex="1" connectable="0">
          <mxGeometry x="-0.55" y="1" relative="1" as="geometry">
            <mxPoint x="-1" y="11" as="offset" />
          </mxGeometry>
        </mxCell>
        <mxCell id="3OqYs08iJ2TYGvWtHfqb-24" value="Clock Actions" style="ellipse;whiteSpace=wrap;html=1;aspect=fixed;fillColor=#FFFFCC;" parent="1" vertex="1">
          <mxGeometry x="130" y="340" width="80" height="80" as="geometry" />
        </mxCell>
        <mxCell id="3OqYs08iJ2TYGvWtHfqb-35" value="" style="edgeStyle=orthogonalEdgeStyle;rounded=0;orthogonalLoop=1;jettySize=auto;html=1;" parent="1" source="3OqYs08iJ2TYGvWtHfqb-29" target="3OqYs08iJ2TYGvWtHfqb-31" edge="1">
          <mxGeometry relative="1" as="geometry" />
        </mxCell>
        <mxCell id="3OqYs08iJ2TYGvWtHfqb-63" style="edgeStyle=orthogonalEdgeStyle;rounded=0;orthogonalLoop=1;jettySize=auto;html=1;entryX=0.5;entryY=0;entryDx=0;entryDy=0;" parent="1" source="3OqYs08iJ2TYGvWtHfqb-29" target="3OqYs08iJ2TYGvWtHfqb-60" edge="1">
          <mxGeometry relative="1" as="geometry" />
        </mxCell>
        <mxCell id="3OqYs08iJ2TYGvWtHfqb-145" style="edgeStyle=orthogonalEdgeStyle;rounded=0;orthogonalLoop=1;jettySize=auto;html=1;entryX=0.5;entryY=0;entryDx=0;entryDy=0;" parent="1" source="3OqYs08iJ2TYGvWtHfqb-29" target="3OqYs08iJ2TYGvWtHfqb-97" edge="1">
          <mxGeometry relative="1" as="geometry" />
        </mxCell>
        <mxCell id="3OqYs08iJ2TYGvWtHfqb-146" style="edgeStyle=orthogonalEdgeStyle;rounded=0;orthogonalLoop=1;jettySize=auto;html=1;" parent="1" source="3OqYs08iJ2TYGvWtHfqb-29" target="3OqYs08iJ2TYGvWtHfqb-32" edge="1">
          <mxGeometry relative="1" as="geometry" />
        </mxCell>
        <mxCell id="3OqYs08iJ2TYGvWtHfqb-29" value="Clock list&amp;nbsp; &amp;nbsp;&lt;div&gt;item&lt;/div&gt;" style="ellipse;whiteSpace=wrap;html=1;aspect=fixed;" parent="1" vertex="1">
          <mxGeometry x="480" y="300" width="80" height="80" as="geometry" />
        </mxCell>
        <mxCell id="3OqYs08iJ2TYGvWtHfqb-31" value="Clock Display &amp;amp; Labels" style="ellipse;whiteSpace=wrap;html=1;aspect=fixed;fillColor=#FFFFCC;" parent="1" vertex="1">
          <mxGeometry x="280" y="445" width="80" height="80" as="geometry" />
        </mxCell>
        <mxCell id="wbO4EIsKy-LPrH-x_eMv-4" style="edgeStyle=orthogonalEdgeStyle;rounded=0;orthogonalLoop=1;jettySize=auto;html=1;entryX=0.5;entryY=0;entryDx=0;entryDy=0;" edge="1" parent="1" source="3OqYs08iJ2TYGvWtHfqb-32" target="wbO4EIsKy-LPrH-x_eMv-3">
          <mxGeometry relative="1" as="geometry" />
        </mxCell>
        <mxCell id="3OqYs08iJ2TYGvWtHfqb-32" value="Show Event" style="ellipse;whiteSpace=wrap;html=1;aspect=fixed;" parent="1" vertex="1">
          <mxGeometry x="670" y="440" width="80" height="80" as="geometry" />
        </mxCell>
        <mxCell id="wbO4EIsKy-LPrH-x_eMv-10" style="edgeStyle=orthogonalEdgeStyle;rounded=0;orthogonalLoop=1;jettySize=auto;html=1;entryX=0.5;entryY=0;entryDx=0;entryDy=0;" edge="1" parent="1" source="3OqYs08iJ2TYGvWtHfqb-36" target="wbO4EIsKy-LPrH-x_eMv-7">
          <mxGeometry relative="1" as="geometry" />
        </mxCell>
        <mxCell id="wbO4EIsKy-LPrH-x_eMv-11" style="edgeStyle=orthogonalEdgeStyle;rounded=0;orthogonalLoop=1;jettySize=auto;html=1;entryX=0.5;entryY=0;entryDx=0;entryDy=0;" edge="1" parent="1" source="3OqYs08iJ2TYGvWtHfqb-36" target="wbO4EIsKy-LPrH-x_eMv-8">
          <mxGeometry relative="1" as="geometry" />
        </mxCell>
        <mxCell id="wbO4EIsKy-LPrH-x_eMv-12" style="edgeStyle=orthogonalEdgeStyle;rounded=0;orthogonalLoop=1;jettySize=auto;html=1;" edge="1" parent="1" source="3OqYs08iJ2TYGvWtHfqb-36" target="wbO4EIsKy-LPrH-x_eMv-6">
          <mxGeometry relative="1" as="geometry">
            <Array as="points">
              <mxPoint x="710" y="780" />
              <mxPoint x="555" y="780" />
            </Array>
          </mxGeometry>
        </mxCell>
        <mxCell id="wbO4EIsKy-LPrH-x_eMv-13" style="edgeStyle=orthogonalEdgeStyle;rounded=0;orthogonalLoop=1;jettySize=auto;html=1;entryX=0.5;entryY=0;entryDx=0;entryDy=0;" edge="1" parent="1" source="3OqYs08iJ2TYGvWtHfqb-36" target="wbO4EIsKy-LPrH-x_eMv-9">
          <mxGeometry relative="1" as="geometry">
            <Array as="points">
              <mxPoint x="710" y="780" />
              <mxPoint x="865" y="780" />
            </Array>
          </mxGeometry>
        </mxCell>
        <mxCell id="3OqYs08iJ2TYGvWtHfqb-36" value="Event Item" style="ellipse;whiteSpace=wrap;html=1;aspect=fixed;" parent="1" vertex="1">
          <mxGeometry x="670" y="670" width="80" height="80" as="geometry" />
        </mxCell>
        <mxCell id="3OqYs08iJ2TYGvWtHfqb-41" value="useForm" style="ellipse;whiteSpace=wrap;html=1;aspect=fixed;fillColor=#CCFF99;" parent="1" vertex="1">
          <mxGeometry x="1060" y="230" width="80" height="80" as="geometry" />
        </mxCell>
        <mxCell id="3OqYs08iJ2TYGvWtHfqb-42" value="Modal" style="ellipse;whiteSpace=wrap;html=1;aspect=fixed;fillColor=#FFFFCC;" parent="1" vertex="1">
          <mxGeometry x="870" y="330" width="80" height="80" as="geometry" />
        </mxCell>
        <mxCell id="3OqYs08iJ2TYGvWtHfqb-48" style="edgeStyle=orthogonalEdgeStyle;rounded=0;orthogonalLoop=1;jettySize=auto;html=1;entryX=1;entryY=0.5;entryDx=0;entryDy=0;" parent="1" source="3OqYs08iJ2TYGvWtHfqb-47" target="3OqYs08iJ2TYGvWtHfqb-41" edge="1">
          <mxGeometry relative="1" as="geometry" />
        </mxCell>
        <mxCell id="3OqYs08iJ2TYGvWtHfqb-141" style="edgeStyle=orthogonalEdgeStyle;rounded=0;orthogonalLoop=1;jettySize=auto;html=1;entryX=1;entryY=0.5;entryDx=0;entryDy=0;" parent="1" source="3OqYs08iJ2TYGvWtHfqb-47" target="3OqYs08iJ2TYGvWtHfqb-137" edge="1">
          <mxGeometry relative="1" as="geometry" />
        </mxCell>
        <mxCell id="3OqYs08iJ2TYGvWtHfqb-142" style="edgeStyle=orthogonalEdgeStyle;rounded=0;orthogonalLoop=1;jettySize=auto;html=1;entryX=1;entryY=0.5;entryDx=0;entryDy=0;" parent="1" source="3OqYs08iJ2TYGvWtHfqb-47" target="3OqYs08iJ2TYGvWtHfqb-138" edge="1">
          <mxGeometry relative="1" as="geometry" />
        </mxCell>
        <mxCell id="3OqYs08iJ2TYGvWtHfqb-190" style="edgeStyle=orthogonalEdgeStyle;rounded=0;orthogonalLoop=1;jettySize=auto;html=1;entryX=1;entryY=0.5;entryDx=0;entryDy=0;" parent="1" source="3OqYs08iJ2TYGvWtHfqb-47" target="3OqYs08iJ2TYGvWtHfqb-189" edge="1">
          <mxGeometry relative="1" as="geometry" />
        </mxCell>
        <mxCell id="3OqYs08iJ2TYGvWtHfqb-47" value="Hooks" style="ellipse;whiteSpace=wrap;html=1;aspect=fixed;fillColor=#CCFF99;" parent="1" vertex="1">
          <mxGeometry x="1130" y="90" width="80" height="80" as="geometry" />
        </mxCell>
        <mxCell id="3OqYs08iJ2TYGvWtHfqb-49" value="Clock Form" style="ellipse;whiteSpace=wrap;html=1;aspect=fixed;fillColor=#FFFFCC;" parent="1" vertex="1">
          <mxGeometry x="870" y="440" width="80" height="80" as="geometry" />
        </mxCell>
        <mxCell id="3OqYs08iJ2TYGvWtHfqb-51" value="Clock Form" style="ellipse;whiteSpace=wrap;html=1;aspect=fixed;fillColor=#FFFFCC;" parent="1" vertex="1">
          <mxGeometry x="130" y="620" width="80" height="80" as="geometry" />
        </mxCell>
        <mxCell id="3OqYs08iJ2TYGvWtHfqb-53" style="edgeStyle=orthogonalEdgeStyle;rounded=0;orthogonalLoop=1;jettySize=auto;html=1;" parent="1" source="3OqYs08iJ2TYGvWtHfqb-54" target="3OqYs08iJ2TYGvWtHfqb-55" edge="1">
          <mxGeometry relative="1" as="geometry" />
        </mxCell>
        <mxCell id="3OqYs08iJ2TYGvWtHfqb-55" value="Event Form" style="ellipse;whiteSpace=wrap;html=1;aspect=fixed;fillColor=#FFFFCC;" parent="1" vertex="1">
          <mxGeometry x="615" y="1010" width="80" height="80" as="geometry" />
        </mxCell>
        <mxCell id="3OqYs08iJ2TYGvWtHfqb-65" value="" style="edgeStyle=orthogonalEdgeStyle;rounded=0;orthogonalLoop=1;jettySize=auto;html=1;" parent="1" source="3OqYs08iJ2TYGvWtHfqb-60" target="3OqYs08iJ2TYGvWtHfqb-64" edge="1">
          <mxGeometry relative="1" as="geometry" />
        </mxCell>
        <mxCell id="3OqYs08iJ2TYGvWtHfqb-60" value="create Events" style="ellipse;whiteSpace=wrap;html=1;aspect=fixed;" parent="1" vertex="1">
          <mxGeometry x="550" y="445" width="80" height="80" as="geometry" />
        </mxCell>
        <mxCell id="3OqYs08iJ2TYGvWtHfqb-67" value="" style="edgeStyle=orthogonalEdgeStyle;rounded=0;orthogonalLoop=1;jettySize=auto;html=1;" parent="1" source="3OqYs08iJ2TYGvWtHfqb-64" target="3OqYs08iJ2TYGvWtHfqb-66" edge="1">
          <mxGeometry relative="1" as="geometry" />
        </mxCell>
        <mxCell id="3OqYs08iJ2TYGvWtHfqb-64" value="Modal" style="ellipse;whiteSpace=wrap;html=1;aspect=fixed;fillColor=#FFFFCC;" parent="1" vertex="1">
          <mxGeometry x="550" y="555" width="80" height="80" as="geometry" />
        </mxCell>
        <mxCell id="3OqYs08iJ2TYGvWtHfqb-66" value="Event Form" style="ellipse;whiteSpace=wrap;html=1;aspect=fixed;fillColor=#FFFFCC;" parent="1" vertex="1">
          <mxGeometry x="550" y="670" width="80" height="80" as="geometry" />
        </mxCell>
        <mxCell id="3OqYs08iJ2TYGvWtHfqb-70" style="edgeStyle=orthogonalEdgeStyle;rounded=0;orthogonalLoop=1;jettySize=auto;html=1;entryX=1;entryY=0.5;entryDx=0;entryDy=0;" parent="1" source="3OqYs08iJ2TYGvWtHfqb-68" target="3OqYs08iJ2TYGvWtHfqb-69" edge="1">
          <mxGeometry relative="1" as="geometry" />
        </mxCell>
        <mxCell id="3OqYs08iJ2TYGvWtHfqb-75" style="edgeStyle=orthogonalEdgeStyle;rounded=0;orthogonalLoop=1;jettySize=auto;html=1;entryX=1;entryY=0.5;entryDx=0;entryDy=0;" parent="1" source="3OqYs08iJ2TYGvWtHfqb-68" target="3OqYs08iJ2TYGvWtHfqb-72" edge="1">
          <mxGeometry relative="1" as="geometry" />
        </mxCell>
        <mxCell id="3OqYs08iJ2TYGvWtHfqb-76" style="edgeStyle=orthogonalEdgeStyle;rounded=0;orthogonalLoop=1;jettySize=auto;html=1;entryX=1;entryY=0.5;entryDx=0;entryDy=0;" parent="1" source="3OqYs08iJ2TYGvWtHfqb-68" target="3OqYs08iJ2TYGvWtHfqb-71" edge="1">
          <mxGeometry relative="1" as="geometry" />
        </mxCell>
        <mxCell id="3OqYs08iJ2TYGvWtHfqb-80" style="edgeStyle=orthogonalEdgeStyle;rounded=0;orthogonalLoop=1;jettySize=auto;html=1;" parent="1" source="3OqYs08iJ2TYGvWtHfqb-68" edge="1">
          <mxGeometry relative="1" as="geometry">
            <mxPoint x="1350" y="640" as="targetPoint" />
          </mxGeometry>
        </mxCell>
        <mxCell id="3OqYs08iJ2TYGvWtHfqb-83" style="edgeStyle=orthogonalEdgeStyle;rounded=0;orthogonalLoop=1;jettySize=auto;html=1;entryX=1;entryY=0.5;entryDx=0;entryDy=0;" parent="1" source="3OqYs08iJ2TYGvWtHfqb-68" target="3OqYs08iJ2TYGvWtHfqb-77" edge="1">
          <mxGeometry relative="1" as="geometry" />
        </mxCell>
        <mxCell id="3OqYs08iJ2TYGvWtHfqb-84" style="edgeStyle=orthogonalEdgeStyle;rounded=0;orthogonalLoop=1;jettySize=auto;html=1;entryX=1;entryY=0.5;entryDx=0;entryDy=0;" parent="1" source="3OqYs08iJ2TYGvWtHfqb-68" target="3OqYs08iJ2TYGvWtHfqb-78" edge="1">
          <mxGeometry relative="1" as="geometry" />
        </mxCell>
        <mxCell id="3OqYs08iJ2TYGvWtHfqb-85" style="edgeStyle=orthogonalEdgeStyle;rounded=0;orthogonalLoop=1;jettySize=auto;html=1;entryX=1;entryY=0.5;entryDx=0;entryDy=0;" parent="1" source="3OqYs08iJ2TYGvWtHfqb-68" target="3OqYs08iJ2TYGvWtHfqb-79" edge="1">
          <mxGeometry relative="1" as="geometry" />
        </mxCell>
        <mxCell id="3OqYs08iJ2TYGvWtHfqb-68" value="UI Components" style="ellipse;whiteSpace=wrap;html=1;aspect=fixed;fillColor=#99FFFF;" parent="1" vertex="1">
          <mxGeometry x="1310" y="90" width="80" height="80" as="geometry" />
        </mxCell>
        <mxCell id="3OqYs08iJ2TYGvWtHfqb-69" value="Text" style="ellipse;whiteSpace=wrap;html=1;aspect=fixed;fillColor=#99FFFF;" parent="1" vertex="1">
          <mxGeometry x="1240" y="230" width="80" height="80" as="geometry" />
        </mxCell>
        <mxCell id="3OqYs08iJ2TYGvWtHfqb-71" value="Input" style="ellipse;whiteSpace=wrap;html=1;aspect=fixed;fillColor=#99FFFF;" parent="1" vertex="1">
          <mxGeometry x="1240" y="350" width="80" height="80" as="geometry" />
        </mxCell>
        <mxCell id="3OqYs08iJ2TYGvWtHfqb-72" value="Select" style="ellipse;whiteSpace=wrap;html=1;aspect=fixed;fillColor=#99FFFF;" parent="1" vertex="1">
          <mxGeometry x="1240" y="450" width="80" height="80" as="geometry" />
        </mxCell>
        <mxCell id="3OqYs08iJ2TYGvWtHfqb-73" value="Button" style="ellipse;whiteSpace=wrap;html=1;aspect=fixed;fillColor=#99FFFF;" parent="1" vertex="1">
          <mxGeometry x="1240" y="560" width="80" height="80" as="geometry" />
        </mxCell>
        <mxCell id="3OqYs08iJ2TYGvWtHfqb-77" value="List" style="ellipse;whiteSpace=wrap;html=1;aspect=fixed;fillColor=#99FFFF;" parent="1" vertex="1">
          <mxGeometry x="1240" y="660" width="80" height="80" as="geometry" />
        </mxCell>
        <mxCell id="3OqYs08iJ2TYGvWtHfqb-78" value="List Item" style="ellipse;whiteSpace=wrap;html=1;aspect=fixed;fillColor=#99FFFF;" parent="1" vertex="1">
          <mxGeometry x="1240" y="760" width="80" height="80" as="geometry" />
        </mxCell>
        <mxCell id="3OqYs08iJ2TYGvWtHfqb-79" value="Card" style="ellipse;whiteSpace=wrap;html=1;aspect=fixed;fillColor=#99FFFF;" parent="1" vertex="1">
          <mxGeometry x="1240" y="860" width="80" height="80" as="geometry" />
        </mxCell>
        <mxCell id="3OqYs08iJ2TYGvWtHfqb-90" value="" style="edgeStyle=orthogonalEdgeStyle;rounded=0;orthogonalLoop=1;jettySize=auto;html=1;" parent="1" source="3OqYs08iJ2TYGvWtHfqb-86" target="3OqYs08iJ2TYGvWtHfqb-88" edge="1">
          <mxGeometry relative="1" as="geometry" />
        </mxCell>
        <mxCell id="3OqYs08iJ2TYGvWtHfqb-91" style="edgeStyle=orthogonalEdgeStyle;rounded=0;orthogonalLoop=1;jettySize=auto;html=1;" parent="1" source="3OqYs08iJ2TYGvWtHfqb-86" target="3OqYs08iJ2TYGvWtHfqb-88" edge="1">
          <mxGeometry relative="1" as="geometry" />
        </mxCell>
        <mxCell id="3OqYs08iJ2TYGvWtHfqb-93" style="edgeStyle=orthogonalEdgeStyle;rounded=0;orthogonalLoop=1;jettySize=auto;html=1;" parent="1" source="3OqYs08iJ2TYGvWtHfqb-86" target="3OqYs08iJ2TYGvWtHfqb-89" edge="1">
          <mxGeometry relative="1" as="geometry" />
        </mxCell>
        <mxCell id="3OqYs08iJ2TYGvWtHfqb-94" style="edgeStyle=orthogonalEdgeStyle;rounded=0;orthogonalLoop=1;jettySize=auto;html=1;entryX=0.5;entryY=0;entryDx=0;entryDy=0;" parent="1" source="3OqYs08iJ2TYGvWtHfqb-86" target="3OqYs08iJ2TYGvWtHfqb-87" edge="1">
          <mxGeometry relative="1" as="geometry" />
        </mxCell>
        <mxCell id="3OqYs08iJ2TYGvWtHfqb-86" value="Clock Display &amp;amp; Labels" style="ellipse;whiteSpace=wrap;html=1;aspect=fixed;fillColor=#FFFFCC;" parent="1" vertex="1">
          <mxGeometry x="120" y="1190" width="80" height="80" as="geometry" />
        </mxCell>
        <mxCell id="3OqYs08iJ2TYGvWtHfqb-87" value="Text H3" style="ellipse;whiteSpace=wrap;html=1;aspect=fixed;fillColor=#99FFFF;" parent="1" vertex="1">
          <mxGeometry y="1310" width="80" height="80" as="geometry" />
        </mxCell>
        <mxCell id="3OqYs08iJ2TYGvWtHfqb-88" value="Text H1" style="ellipse;whiteSpace=wrap;html=1;aspect=fixed;fillColor=#99FFFF;" parent="1" vertex="1">
          <mxGeometry x="120" y="1310" width="80" height="80" as="geometry" />
        </mxCell>
        <mxCell id="3OqYs08iJ2TYGvWtHfqb-89" value="Text P" style="ellipse;whiteSpace=wrap;html=1;aspect=fixed;fillColor=#99FFFF;" parent="1" vertex="1">
          <mxGeometry x="240" y="1310" width="80" height="80" as="geometry" />
        </mxCell>
        <mxCell id="3OqYs08iJ2TYGvWtHfqb-95" value="Clock Actions" style="ellipse;whiteSpace=wrap;html=1;aspect=fixed;fillColor=#FFFFCC;" parent="1" vertex="1">
          <mxGeometry x="870" y="540" width="80" height="80" as="geometry" />
        </mxCell>
        <mxCell id="3OqYs08iJ2TYGvWtHfqb-102" value="" style="edgeStyle=orthogonalEdgeStyle;rounded=0;orthogonalLoop=1;jettySize=auto;html=1;" parent="1" source="3OqYs08iJ2TYGvWtHfqb-97" target="3OqYs08iJ2TYGvWtHfqb-99" edge="1">
          <mxGeometry relative="1" as="geometry" />
        </mxCell>
        <mxCell id="3OqYs08iJ2TYGvWtHfqb-97" value="Clock Actions" style="ellipse;whiteSpace=wrap;html=1;aspect=fixed;fillColor=#FFFFCC;" parent="1" vertex="1">
          <mxGeometry x="400" y="445" width="80" height="80" as="geometry" />
        </mxCell>
        <mxCell id="3OqYs08iJ2TYGvWtHfqb-98" style="edgeStyle=orthogonalEdgeStyle;rounded=0;orthogonalLoop=1;jettySize=auto;html=1;" parent="1" source="3OqYs08iJ2TYGvWtHfqb-99" target="3OqYs08iJ2TYGvWtHfqb-101" edge="1">
          <mxGeometry relative="1" as="geometry" />
        </mxCell>
        <mxCell id="3OqYs08iJ2TYGvWtHfqb-99" value="Modal" style="ellipse;whiteSpace=wrap;html=1;aspect=fixed;fillColor=#FFFFCC;" parent="1" vertex="1">
          <mxGeometry x="400" y="555" width="80" height="80" as="geometry" />
        </mxCell>
        <mxCell id="3OqYs08iJ2TYGvWtHfqb-100" value="when Clicked Create or edit" style="edgeLabel;html=1;align=center;verticalAlign=middle;resizable=0;points=[];" parent="1" vertex="1" connectable="0">
          <mxGeometry x="440" y="540" as="geometry" />
        </mxCell>
        <mxCell id="3OqYs08iJ2TYGvWtHfqb-101" value="Clock Form" style="ellipse;whiteSpace=wrap;html=1;aspect=fixed;fillColor=#FFFFCC;" parent="1" vertex="1">
          <mxGeometry x="400" y="675" width="80" height="80" as="geometry" />
        </mxCell>
        <mxCell id="3OqYs08iJ2TYGvWtHfqb-106" style="edgeStyle=orthogonalEdgeStyle;rounded=0;orthogonalLoop=1;jettySize=auto;html=1;entryX=0.5;entryY=0;entryDx=0;entryDy=0;" parent="1" source="3OqYs08iJ2TYGvWtHfqb-103" target="3OqYs08iJ2TYGvWtHfqb-104" edge="1">
          <mxGeometry relative="1" as="geometry" />
        </mxCell>
        <mxCell id="3OqYs08iJ2TYGvWtHfqb-107" style="edgeStyle=orthogonalEdgeStyle;rounded=0;orthogonalLoop=1;jettySize=auto;html=1;" parent="1" source="3OqYs08iJ2TYGvWtHfqb-103" target="3OqYs08iJ2TYGvWtHfqb-105" edge="1">
          <mxGeometry relative="1" as="geometry" />
        </mxCell>
        <mxCell id="3OqYs08iJ2TYGvWtHfqb-103" value="Clock Form" style="ellipse;whiteSpace=wrap;html=1;aspect=fixed;fillColor=#FFFFCC;" parent="1" vertex="1">
          <mxGeometry x="450" y="1190" width="80" height="80" as="geometry" />
        </mxCell>
        <mxCell id="3OqYs08iJ2TYGvWtHfqb-104" value="Input - Title" style="ellipse;whiteSpace=wrap;html=1;aspect=fixed;fillColor=#99FFFF;" parent="1" vertex="1">
          <mxGeometry x="400" y="1310" width="80" height="80" as="geometry" />
        </mxCell>
        <mxCell id="3OqYs08iJ2TYGvWtHfqb-105" value="Select- TimeZone" style="ellipse;whiteSpace=wrap;html=1;aspect=fixed;fillColor=#99FFFF;" parent="1" vertex="1">
          <mxGeometry x="500" y="1310" width="80" height="80" as="geometry" />
        </mxCell>
        <mxCell id="3OqYs08iJ2TYGvWtHfqb-112" style="edgeStyle=orthogonalEdgeStyle;rounded=0;orthogonalLoop=1;jettySize=auto;html=1;entryX=0.5;entryY=0;entryDx=0;entryDy=0;" parent="1" source="3OqYs08iJ2TYGvWtHfqb-108" target="3OqYs08iJ2TYGvWtHfqb-109" edge="1">
          <mxGeometry relative="1" as="geometry" />
        </mxCell>
        <mxCell id="3OqYs08iJ2TYGvWtHfqb-116" style="edgeStyle=orthogonalEdgeStyle;rounded=0;orthogonalLoop=1;jettySize=auto;html=1;entryX=0.5;entryY=0;entryDx=0;entryDy=0;" parent="1" source="3OqYs08iJ2TYGvWtHfqb-108" target="3OqYs08iJ2TYGvWtHfqb-115" edge="1">
          <mxGeometry relative="1" as="geometry" />
        </mxCell>
        <mxCell id="3OqYs08iJ2TYGvWtHfqb-108" value="Clock Actions" style="ellipse;whiteSpace=wrap;html=1;aspect=fixed;fillColor=#FFFFCC;" parent="1" vertex="1">
          <mxGeometry x="700" y="1260" width="80" height="80" as="geometry" />
        </mxCell>
        <mxCell id="3OqYs08iJ2TYGvWtHfqb-109" value="&amp;nbsp;Button - Edit&lt;span style=&quot;color: rgba(0, 0, 0, 0); font-family: monospace; font-size: 0px; text-align: start; text-wrap: nowrap;&quot;&gt;%3CmxGraphModel%3E%3Croot%3E%3CmxCell%20id%3D%220%22%2F%3E%3CmxCell%20id%3D%221%22%20parent%3D%220%22%2F%3E%3CmxCell%20id%3D%222%22%20value%3D%22Button%22%20style%3D%22ellipse%3BwhiteSpace%3Dwrap%3Bhtml%3D1%3Baspect%3Dfixed%3BfillColor%3D%2399FFFF%3B%22%20vertex%3D%221%22%20parent%3D%221%22%3E%3CmxGeometry%20x%3D%221180%22%20y%3D%22610%22%20width%3D%2280%22%20height%3D%2280%22%20as%3D%22geometry%22%2F%3E%3C%2FmxCell%3E%3C%2Froot%3E%3C%2FmxGraphModel%3E&lt;/span&gt;" style="ellipse;whiteSpace=wrap;html=1;aspect=fixed;fillColor=#99FFFF;" parent="1" vertex="1">
          <mxGeometry x="640" y="1380" width="80" height="80" as="geometry" />
        </mxCell>
        <mxCell id="3OqYs08iJ2TYGvWtHfqb-110" value="&amp;nbsp;Button - Delete&lt;span style=&quot;color: rgba(0, 0, 0, 0); font-family: monospace; font-size: 0px; text-align: start; text-wrap: nowrap;&quot;&gt;%3CmxGraphModel%3E%3Croot%3E%3CmxCell%20id%3D%220%22%2F%3E%3CmxCell%20id%3D%221%22%20parent%3D%220%22%2F%3E%3CmxCell%20id%3D%222%22%20value%3D%22Button%22%20style%3D%22ellipse%3BwhiteSpace%3Dwrap%3Bhtml%3D1%3Baspect%3Dfixed%3BfillColor%3D%2399FFFF%3B%22%20vertex%3D%221%22%20parent%3D%221%22%3E%3CmxGeometry%20x%3D%221180%22%20y%3D%22610%22%20width%3D%2280%22%20height%3D%2280%22%20as%3D%22geometry%22%2F%3E%3C%2FmxCell%3E%3C%2Froot%3E%3C%2FmxGraphModel%3E&lt;/span&gt;" style="ellipse;whiteSpace=wrap;html=1;aspect=fixed;fillColor=#99FFFF;" parent="1" vertex="1">
          <mxGeometry x="700" y="1500" width="80" height="80" as="geometry" />
        </mxCell>
        <mxCell id="3OqYs08iJ2TYGvWtHfqb-111" value="&amp;nbsp;Button - Create&lt;span style=&quot;color: rgba(0, 0, 0, 0); font-family: monospace; font-size: 0px; text-align: start; text-wrap: nowrap;&quot;&gt;%3CmxGraphModel%3E%3Croot%3E%3CmxCell%20id%3D%220%22%2F%3E%3CmxCell%20id%3D%221%22%20parent%3D%220%22%2F%3E%3CmxCell%20id%3D%222%22%20value%3D%22Button%22%20style%3D%22ellipse%3BwhiteSpace%3Dwrap%3Bhtml%3D1%3Baspect%3Dfixed%3BfillColor%3D%2399FFFF%3B%22%20vertex%3D%221%22%20parent%3D%221%22%3E%3CmxGeometry%20x%3D%221180%22%20y%3D%22610%22%20width%3D%2280%22%20height%3D%2280%22%20as%3D%22geometry%22%2F%3E%3C%2FmxCell%3E%3C%2Froot%3E%3C%2FmxGraphModel%3E&lt;/span&gt;" style="ellipse;whiteSpace=wrap;html=1;aspect=fixed;fillColor=#99FFFF;" parent="1" vertex="1">
          <mxGeometry x="820" y="1500" width="80" height="80" as="geometry" />
        </mxCell>
        <mxCell id="3OqYs08iJ2TYGvWtHfqb-118" style="edgeStyle=orthogonalEdgeStyle;rounded=0;orthogonalLoop=1;jettySize=auto;html=1;entryX=0.5;entryY=0;entryDx=0;entryDy=0;" parent="1" source="3OqYs08iJ2TYGvWtHfqb-115" target="3OqYs08iJ2TYGvWtHfqb-111" edge="1">
          <mxGeometry relative="1" as="geometry" />
        </mxCell>
        <mxCell id="3OqYs08iJ2TYGvWtHfqb-119" style="edgeStyle=orthogonalEdgeStyle;rounded=0;orthogonalLoop=1;jettySize=auto;html=1;entryX=0.5;entryY=0;entryDx=0;entryDy=0;" parent="1" source="3OqYs08iJ2TYGvWtHfqb-115" target="3OqYs08iJ2TYGvWtHfqb-110" edge="1">
          <mxGeometry relative="1" as="geometry" />
        </mxCell>
        <mxCell id="3OqYs08iJ2TYGvWtHfqb-115" value="Either One" style="rhombus;whiteSpace=wrap;html=1;fillColor=#FF9999;" parent="1" vertex="1">
          <mxGeometry x="760" y="1380" width="80" height="80" as="geometry" />
        </mxCell>
        <mxCell id="3OqYs08iJ2TYGvWtHfqb-124" value="" style="edgeStyle=orthogonalEdgeStyle;rounded=0;orthogonalLoop=1;jettySize=auto;html=1;" parent="1" source="3OqYs08iJ2TYGvWtHfqb-120" target="3OqYs08iJ2TYGvWtHfqb-121" edge="1">
          <mxGeometry relative="1" as="geometry" />
        </mxCell>
        <mxCell id="3OqYs08iJ2TYGvWtHfqb-125" style="edgeStyle=orthogonalEdgeStyle;rounded=0;orthogonalLoop=1;jettySize=auto;html=1;entryX=0.5;entryY=0;entryDx=0;entryDy=0;" parent="1" source="3OqYs08iJ2TYGvWtHfqb-120" target="3OqYs08iJ2TYGvWtHfqb-122" edge="1">
          <mxGeometry relative="1" as="geometry" />
        </mxCell>
        <mxCell id="3OqYs08iJ2TYGvWtHfqb-126" style="edgeStyle=orthogonalEdgeStyle;rounded=0;orthogonalLoop=1;jettySize=auto;html=1;entryX=0.5;entryY=0;entryDx=0;entryDy=0;" parent="1" source="3OqYs08iJ2TYGvWtHfqb-120" target="3OqYs08iJ2TYGvWtHfqb-123" edge="1">
          <mxGeometry relative="1" as="geometry" />
        </mxCell>
        <mxCell id="3OqYs08iJ2TYGvWtHfqb-120" value="create Events&lt;div&gt;From&lt;/div&gt;" style="ellipse;whiteSpace=wrap;html=1;aspect=fixed;" parent="1" vertex="1">
          <mxGeometry x="1030" y="1190" width="80" height="80" as="geometry" />
        </mxCell>
        <mxCell id="3OqYs08iJ2TYGvWtHfqb-121" value="Input - Date" style="ellipse;whiteSpace=wrap;html=1;aspect=fixed;fillColor=#99FFFF;" parent="1" vertex="1">
          <mxGeometry x="1030" y="1310" width="80" height="80" as="geometry" />
        </mxCell>
        <mxCell id="3OqYs08iJ2TYGvWtHfqb-122" value="Input - text" style="ellipse;whiteSpace=wrap;html=1;aspect=fixed;fillColor=#99FFFF;" parent="1" vertex="1">
          <mxGeometry x="920" y="1310" width="80" height="80" as="geometry" />
        </mxCell>
        <mxCell id="3OqYs08iJ2TYGvWtHfqb-123" value="Input - Date" style="ellipse;whiteSpace=wrap;html=1;aspect=fixed;fillColor=#99FFFF;" parent="1" vertex="1">
          <mxGeometry x="1130" y="1310" width="80" height="80" as="geometry" />
        </mxCell>
        <mxCell id="3OqYs08iJ2TYGvWtHfqb-130" style="edgeStyle=orthogonalEdgeStyle;rounded=0;orthogonalLoop=1;jettySize=auto;html=1;entryX=0.5;entryY=0;entryDx=0;entryDy=0;" parent="1" source="3OqYs08iJ2TYGvWtHfqb-127" target="3OqYs08iJ2TYGvWtHfqb-128" edge="1">
          <mxGeometry relative="1" as="geometry" />
        </mxCell>
        <mxCell id="3OqYs08iJ2TYGvWtHfqb-132" style="edgeStyle=orthogonalEdgeStyle;rounded=0;orthogonalLoop=1;jettySize=auto;html=1;entryX=0.5;entryY=0;entryDx=0;entryDy=0;" parent="1" source="3OqYs08iJ2TYGvWtHfqb-127" target="3OqYs08iJ2TYGvWtHfqb-129" edge="1">
          <mxGeometry relative="1" as="geometry" />
        </mxCell>
        <mxCell id="3OqYs08iJ2TYGvWtHfqb-135" style="edgeStyle=orthogonalEdgeStyle;rounded=0;orthogonalLoop=1;jettySize=auto;html=1;entryX=0.5;entryY=0;entryDx=0;entryDy=0;" parent="1" source="3OqYs08iJ2TYGvWtHfqb-127" target="3OqYs08iJ2TYGvWtHfqb-133" edge="1">
          <mxGeometry relative="1" as="geometry" />
        </mxCell>
        <mxCell id="3OqYs08iJ2TYGvWtHfqb-136" style="edgeStyle=orthogonalEdgeStyle;rounded=0;orthogonalLoop=1;jettySize=auto;html=1;entryX=0.5;entryY=0;entryDx=0;entryDy=0;" parent="1" source="3OqYs08iJ2TYGvWtHfqb-127" target="3OqYs08iJ2TYGvWtHfqb-134" edge="1">
          <mxGeometry relative="1" as="geometry" />
        </mxCell>
        <mxCell id="3OqYs08iJ2TYGvWtHfqb-127" value="Event Item" style="ellipse;whiteSpace=wrap;html=1;aspect=fixed;" parent="1" vertex="1">
          <mxGeometry x="1410" y="1190" width="80" height="80" as="geometry" />
        </mxCell>
        <mxCell id="3OqYs08iJ2TYGvWtHfqb-128" value="Text - H3" style="ellipse;whiteSpace=wrap;html=1;aspect=fixed;fillColor=#99FFFF;" parent="1" vertex="1">
          <mxGeometry x="1260" y="1320" width="80" height="80" as="geometry" />
        </mxCell>
        <mxCell id="3OqYs08iJ2TYGvWtHfqb-129" value="Text - P" style="ellipse;whiteSpace=wrap;html=1;aspect=fixed;fillColor=#99FFFF;" parent="1" vertex="1">
          <mxGeometry x="1560" y="1320" width="80" height="80" as="geometry" />
        </mxCell>
        <mxCell id="3OqYs08iJ2TYGvWtHfqb-133" value="Button - Delete" style="ellipse;whiteSpace=wrap;html=1;aspect=fixed;fillColor=#99FFFF;" parent="1" vertex="1">
          <mxGeometry x="1360" y="1320" width="80" height="80" as="geometry" />
        </mxCell>
        <mxCell id="3OqYs08iJ2TYGvWtHfqb-134" value="Button - Edit" style="ellipse;whiteSpace=wrap;html=1;aspect=fixed;fillColor=#99FFFF;" parent="1" vertex="1">
          <mxGeometry x="1460" y="1320" width="80" height="80" as="geometry" />
        </mxCell>
        <mxCell id="3OqYs08iJ2TYGvWtHfqb-137" value="useClock" style="ellipse;whiteSpace=wrap;html=1;aspect=fixed;fillColor=#CCFF99;" parent="1" vertex="1">
          <mxGeometry x="1060" y="320" width="80" height="80" as="geometry" />
        </mxCell>
        <mxCell id="3OqYs08iJ2TYGvWtHfqb-138" value="useEvents" style="ellipse;whiteSpace=wrap;html=1;aspect=fixed;fillColor=#CCFF99;" parent="1" vertex="1">
          <mxGeometry x="1060" y="410" width="80" height="80" as="geometry" />
        </mxCell>
        <mxCell id="3OqYs08iJ2TYGvWtHfqb-143" value="useApp" style="ellipse;whiteSpace=wrap;html=1;aspect=fixed;fillColor=#CCFF99;" parent="1" vertex="1">
          <mxGeometry x="310" y="40" width="80" height="80" as="geometry" />
        </mxCell>
        <mxCell id="3OqYs08iJ2TYGvWtHfqb-147" value="" style="edgeStyle=orthogonalEdgeStyle;rounded=0;orthogonalLoop=1;jettySize=auto;html=1;" parent="1" source="3OqYs08iJ2TYGvWtHfqb-149" target="3OqYs08iJ2TYGvWtHfqb-153" edge="1">
          <mxGeometry relative="1" as="geometry" />
        </mxCell>
        <mxCell id="3OqYs08iJ2TYGvWtHfqb-208" value="Local Clock" style="edgeLabel;html=1;align=center;verticalAlign=middle;resizable=0;points=[];" parent="3OqYs08iJ2TYGvWtHfqb-147" vertex="1" connectable="0">
          <mxGeometry x="0.6865" relative="1" as="geometry">
            <mxPoint as="offset" />
          </mxGeometry>
        </mxCell>
        <mxCell id="3OqYs08iJ2TYGvWtHfqb-148" value="" style="edgeStyle=orthogonalEdgeStyle;rounded=0;orthogonalLoop=1;jettySize=auto;html=1;" parent="1" source="3OqYs08iJ2TYGvWtHfqb-149" target="3OqYs08iJ2TYGvWtHfqb-155" edge="1">
          <mxGeometry relative="1" as="geometry" />
        </mxCell>
        <mxCell id="3OqYs08iJ2TYGvWtHfqb-196" value="All Clocks and Events" style="edgeLabel;html=1;align=center;verticalAlign=middle;resizable=0;points=[];" parent="3OqYs08iJ2TYGvWtHfqb-148" vertex="1" connectable="0">
          <mxGeometry x="0.6998" relative="1" as="geometry">
            <mxPoint as="offset" />
          </mxGeometry>
        </mxCell>
        <mxCell id="3OqYs08iJ2TYGvWtHfqb-149" value="App" style="ellipse;whiteSpace=wrap;html=1;aspect=fixed;" parent="1" vertex="1">
          <mxGeometry x="1800" y="110" width="80" height="80" as="geometry" />
        </mxCell>
        <mxCell id="3OqYs08iJ2TYGvWtHfqb-150" value="" style="edgeStyle=orthogonalEdgeStyle;rounded=0;orthogonalLoop=1;jettySize=auto;html=1;" parent="1" source="3OqYs08iJ2TYGvWtHfqb-153" target="3OqYs08iJ2TYGvWtHfqb-158" edge="1">
          <mxGeometry relative="1" as="geometry" />
        </mxCell>
        <mxCell id="3OqYs08iJ2TYGvWtHfqb-151" value="" style="edgeStyle=orthogonalEdgeStyle;rounded=0;orthogonalLoop=1;jettySize=auto;html=1;" parent="1" source="3OqYs08iJ2TYGvWtHfqb-153" target="3OqYs08iJ2TYGvWtHfqb-158" edge="1">
          <mxGeometry relative="1" as="geometry" />
        </mxCell>
        <mxCell id="3OqYs08iJ2TYGvWtHfqb-152" value="" style="edgeStyle=orthogonalEdgeStyle;rounded=0;orthogonalLoop=1;jettySize=auto;html=1;" parent="1" source="3OqYs08iJ2TYGvWtHfqb-153" target="3OqYs08iJ2TYGvWtHfqb-161" edge="1">
          <mxGeometry relative="1" as="geometry" />
        </mxCell>
        <mxCell id="3OqYs08iJ2TYGvWtHfqb-153" value="Local Clock" style="ellipse;whiteSpace=wrap;html=1;aspect=fixed;" parent="1" vertex="1">
          <mxGeometry x="1600" y="210" width="80" height="80" as="geometry" />
        </mxCell>
        <mxCell id="3OqYs08iJ2TYGvWtHfqb-154" value="" style="edgeStyle=orthogonalEdgeStyle;rounded=0;orthogonalLoop=1;jettySize=auto;html=1;" parent="1" source="3OqYs08iJ2TYGvWtHfqb-155" target="3OqYs08iJ2TYGvWtHfqb-166" edge="1">
          <mxGeometry relative="1" as="geometry" />
        </mxCell>
        <mxCell id="3OqYs08iJ2TYGvWtHfqb-198" value="Props" style="edgeLabel;html=1;align=center;verticalAlign=middle;resizable=0;points=[];" parent="3OqYs08iJ2TYGvWtHfqb-154" vertex="1" connectable="0">
          <mxGeometry x="-0.2824" relative="1" as="geometry">
            <mxPoint as="offset" />
          </mxGeometry>
        </mxCell>
        <mxCell id="3OqYs08iJ2TYGvWtHfqb-155" value="Clock List" style="ellipse;whiteSpace=wrap;html=1;aspect=fixed;" parent="1" vertex="1">
          <mxGeometry x="2000" y="200" width="80" height="80" as="geometry" />
        </mxCell>
        <mxCell id="3OqYs08iJ2TYGvWtHfqb-156" style="edgeStyle=orthogonalEdgeStyle;rounded=0;orthogonalLoop=1;jettySize=auto;html=1;" parent="1" source="3OqYs08iJ2TYGvWtHfqb-157" target="3OqYs08iJ2TYGvWtHfqb-173" edge="1">
          <mxGeometry relative="1" as="geometry" />
        </mxCell>
        <mxCell id="3OqYs08iJ2TYGvWtHfqb-157" value="Create clock Modal" style="ellipse;whiteSpace=wrap;html=1;aspect=fixed;" parent="1" vertex="1">
          <mxGeometry x="1650" y="480" width="80" height="80" as="geometry" />
        </mxCell>
        <mxCell id="3OqYs08iJ2TYGvWtHfqb-158" value="Clock Display &amp;amp; Labels" style="ellipse;whiteSpace=wrap;html=1;aspect=fixed;fillColor=#FFFFCC;" parent="1" vertex="1">
          <mxGeometry x="1550" y="360" width="80" height="80" as="geometry" />
        </mxCell>
        <mxCell id="3OqYs08iJ2TYGvWtHfqb-159" value="" style="edgeStyle=orthogonalEdgeStyle;rounded=0;orthogonalLoop=1;jettySize=auto;html=1;" parent="1" source="3OqYs08iJ2TYGvWtHfqb-161" target="3OqYs08iJ2TYGvWtHfqb-157" edge="1">
          <mxGeometry relative="1" as="geometry" />
        </mxCell>
        <mxCell id="3OqYs08iJ2TYGvWtHfqb-160" value="when Clicked Create or edit" style="edgeLabel;html=1;align=center;verticalAlign=middle;resizable=0;points=[];" parent="3OqYs08iJ2TYGvWtHfqb-159" vertex="1" connectable="0">
          <mxGeometry x="-0.55" y="1" relative="1" as="geometry">
            <mxPoint x="-1" y="11" as="offset" />
          </mxGeometry>
        </mxCell>
        <mxCell id="3OqYs08iJ2TYGvWtHfqb-193" style="edgeStyle=orthogonalEdgeStyle;rounded=0;orthogonalLoop=1;jettySize=auto;html=1;entryX=0.5;entryY=1;entryDx=0;entryDy=0;" parent="1" source="3OqYs08iJ2TYGvWtHfqb-161" target="3OqYs08iJ2TYGvWtHfqb-149" edge="1">
          <mxGeometry relative="1" as="geometry">
            <Array as="points">
              <mxPoint x="1800" y="400" />
              <mxPoint x="1800" y="290" />
              <mxPoint x="1840" y="290" />
            </Array>
          </mxGeometry>
        </mxCell>
        <mxCell id="3OqYs08iJ2TYGvWtHfqb-195" value="Update Local Clock&lt;div&gt;Create New Clock&lt;/div&gt;" style="edgeLabel;html=1;align=center;verticalAlign=middle;resizable=0;points=[];" parent="3OqYs08iJ2TYGvWtHfqb-193" vertex="1" connectable="0">
          <mxGeometry x="0.2207" y="-1" relative="1" as="geometry">
            <mxPoint as="offset" />
          </mxGeometry>
        </mxCell>
        <mxCell id="3OqYs08iJ2TYGvWtHfqb-197" value="State Lift" style="edgeLabel;html=1;align=center;verticalAlign=middle;resizable=0;points=[];" parent="3OqYs08iJ2TYGvWtHfqb-193" vertex="1" connectable="0">
          <mxGeometry x="0.6199" y="1" relative="1" as="geometry">
            <mxPoint as="offset" />
          </mxGeometry>
        </mxCell>
        <mxCell id="3OqYs08iJ2TYGvWtHfqb-161" value="Clock Actions" style="ellipse;whiteSpace=wrap;html=1;aspect=fixed;fillColor=#FFFFCC;" parent="1" vertex="1">
          <mxGeometry x="1650" y="360" width="80" height="80" as="geometry" />
        </mxCell>
        <mxCell id="3OqYs08iJ2TYGvWtHfqb-162" value="" style="edgeStyle=orthogonalEdgeStyle;rounded=0;orthogonalLoop=1;jettySize=auto;html=1;" parent="1" source="3OqYs08iJ2TYGvWtHfqb-166" target="3OqYs08iJ2TYGvWtHfqb-167" edge="1">
          <mxGeometry relative="1" as="geometry" />
        </mxCell>
        <mxCell id="3OqYs08iJ2TYGvWtHfqb-199" value="Props&lt;div&gt;Single Clock&lt;/div&gt;" style="edgeLabel;html=1;align=center;verticalAlign=middle;resizable=0;points=[];" parent="3OqYs08iJ2TYGvWtHfqb-162" vertex="1" connectable="0">
          <mxGeometry x="0.6798" relative="1" as="geometry">
            <mxPoint as="offset" />
          </mxGeometry>
        </mxCell>
        <mxCell id="3OqYs08iJ2TYGvWtHfqb-163" style="edgeStyle=orthogonalEdgeStyle;rounded=0;orthogonalLoop=1;jettySize=auto;html=1;entryX=0.5;entryY=0;entryDx=0;entryDy=0;" parent="1" source="3OqYs08iJ2TYGvWtHfqb-166" target="3OqYs08iJ2TYGvWtHfqb-178" edge="1">
          <mxGeometry relative="1" as="geometry" />
        </mxCell>
        <mxCell id="3OqYs08iJ2TYGvWtHfqb-164" style="edgeStyle=orthogonalEdgeStyle;rounded=0;orthogonalLoop=1;jettySize=auto;html=1;entryX=0.5;entryY=0;entryDx=0;entryDy=0;" parent="1" source="3OqYs08iJ2TYGvWtHfqb-166" target="3OqYs08iJ2TYGvWtHfqb-183" edge="1">
          <mxGeometry relative="1" as="geometry" />
        </mxCell>
        <mxCell id="3OqYs08iJ2TYGvWtHfqb-165" style="edgeStyle=orthogonalEdgeStyle;rounded=0;orthogonalLoop=1;jettySize=auto;html=1;" parent="1" source="3OqYs08iJ2TYGvWtHfqb-166" target="3OqYs08iJ2TYGvWtHfqb-169" edge="1">
          <mxGeometry relative="1" as="geometry" />
        </mxCell>
        <mxCell id="3OqYs08iJ2TYGvWtHfqb-166" value="Clock list&amp;nbsp; &amp;nbsp;&lt;div&gt;item&lt;/div&gt;" style="ellipse;whiteSpace=wrap;html=1;aspect=fixed;" parent="1" vertex="1">
          <mxGeometry x="2000" y="320" width="80" height="80" as="geometry" />
        </mxCell>
        <mxCell id="3OqYs08iJ2TYGvWtHfqb-167" value="Clock Display &amp;amp; Labels" style="ellipse;whiteSpace=wrap;html=1;aspect=fixed;fillColor=#FFFFCC;" parent="1" vertex="1">
          <mxGeometry x="1800" y="465" width="80" height="80" as="geometry" />
        </mxCell>
        <mxCell id="3OqYs08iJ2TYGvWtHfqb-168" value="" style="edgeStyle=orthogonalEdgeStyle;rounded=0;orthogonalLoop=1;jettySize=auto;html=1;" parent="1" source="3OqYs08iJ2TYGvWtHfqb-169" target="3OqYs08iJ2TYGvWtHfqb-172" edge="1">
          <mxGeometry relative="1" as="geometry" />
        </mxCell>
        <mxCell id="3OqYs08iJ2TYGvWtHfqb-200" value="Event Props" style="edgeLabel;html=1;align=center;verticalAlign=middle;resizable=0;points=[];" parent="3OqYs08iJ2TYGvWtHfqb-168" vertex="1" connectable="0">
          <mxGeometry x="-0.7203" y="-2" relative="1" as="geometry">
            <mxPoint x="2" y="3" as="offset" />
          </mxGeometry>
        </mxCell>
        <mxCell id="3OqYs08iJ2TYGvWtHfqb-169" value="Toggle Event" style="ellipse;whiteSpace=wrap;html=1;aspect=fixed;" parent="1" vertex="1">
          <mxGeometry x="2060" y="465" width="80" height="80" as="geometry" />
        </mxCell>
        <mxCell id="3OqYs08iJ2TYGvWtHfqb-170" value="" style="edgeStyle=orthogonalEdgeStyle;rounded=0;orthogonalLoop=1;jettySize=auto;html=1;" parent="1" source="3OqYs08iJ2TYGvWtHfqb-172" target="3OqYs08iJ2TYGvWtHfqb-175" edge="1">
          <mxGeometry relative="1" as="geometry" />
        </mxCell>
        <mxCell id="3OqYs08iJ2TYGvWtHfqb-171" value="When Clicked On Edit" style="edgeLabel;html=1;align=center;verticalAlign=middle;resizable=0;points=[];" parent="3OqYs08iJ2TYGvWtHfqb-170" vertex="1" connectable="0">
          <mxGeometry x="-0.2" y="-2" relative="1" as="geometry">
            <mxPoint x="2" as="offset" />
          </mxGeometry>
        </mxCell>
        <mxCell id="3OqYs08iJ2TYGvWtHfqb-172" value="Event Item" style="ellipse;whiteSpace=wrap;html=1;aspect=fixed;" parent="1" vertex="1">
          <mxGeometry x="2060" y="575" width="80" height="80" as="geometry" />
        </mxCell>
        <mxCell id="3OqYs08iJ2TYGvWtHfqb-173" value="Clock Form" style="ellipse;whiteSpace=wrap;html=1;aspect=fixed;fillColor=#FFFFCC;" parent="1" vertex="1">
          <mxGeometry x="1650" y="640" width="80" height="80" as="geometry" />
        </mxCell>
        <mxCell id="3OqYs08iJ2TYGvWtHfqb-174" style="edgeStyle=orthogonalEdgeStyle;rounded=0;orthogonalLoop=1;jettySize=auto;html=1;" parent="1" source="3OqYs08iJ2TYGvWtHfqb-175" target="3OqYs08iJ2TYGvWtHfqb-176" edge="1">
          <mxGeometry relative="1" as="geometry" />
        </mxCell>
        <mxCell id="3OqYs08iJ2TYGvWtHfqb-175" value="Modal" style="ellipse;whiteSpace=wrap;html=1;aspect=fixed;fillColor=#FFFFCC;" parent="1" vertex="1">
          <mxGeometry x="2060" y="695" width="80" height="80" as="geometry" />
        </mxCell>
        <mxCell id="3OqYs08iJ2TYGvWtHfqb-202" style="edgeStyle=orthogonalEdgeStyle;rounded=0;orthogonalLoop=1;jettySize=auto;html=1;entryX=1;entryY=0.5;entryDx=0;entryDy=0;" parent="1" source="3OqYs08iJ2TYGvWtHfqb-176" target="3OqYs08iJ2TYGvWtHfqb-149" edge="1">
          <mxGeometry relative="1" as="geometry">
            <Array as="points">
              <mxPoint x="2340" y="850" />
              <mxPoint x="2340" y="150" />
            </Array>
          </mxGeometry>
        </mxCell>
        <mxCell id="3OqYs08iJ2TYGvWtHfqb-203" value="State Lift&lt;div&gt;Create Event&lt;/div&gt;" style="edgeLabel;html=1;align=center;verticalAlign=middle;resizable=0;points=[];" parent="3OqYs08iJ2TYGvWtHfqb-202" vertex="1" connectable="0">
          <mxGeometry x="-0.3956" y="-4" relative="1" as="geometry">
            <mxPoint as="offset" />
          </mxGeometry>
        </mxCell>
        <mxCell id="3OqYs08iJ2TYGvWtHfqb-176" value="Event Form" style="ellipse;whiteSpace=wrap;html=1;aspect=fixed;fillColor=#FFFFCC;" parent="1" vertex="1">
          <mxGeometry x="2060" y="810" width="80" height="80" as="geometry" />
        </mxCell>
        <mxCell id="3OqYs08iJ2TYGvWtHfqb-177" value="" style="edgeStyle=orthogonalEdgeStyle;rounded=0;orthogonalLoop=1;jettySize=auto;html=1;" parent="1" source="3OqYs08iJ2TYGvWtHfqb-178" target="3OqYs08iJ2TYGvWtHfqb-180" edge="1">
          <mxGeometry relative="1" as="geometry" />
        </mxCell>
        <mxCell id="3OqYs08iJ2TYGvWtHfqb-178" value="create Events" style="ellipse;whiteSpace=wrap;html=1;aspect=fixed;" parent="1" vertex="1">
          <mxGeometry x="2210" y="465" width="80" height="80" as="geometry" />
        </mxCell>
        <mxCell id="3OqYs08iJ2TYGvWtHfqb-179" value="" style="edgeStyle=orthogonalEdgeStyle;rounded=0;orthogonalLoop=1;jettySize=auto;html=1;" parent="1" source="3OqYs08iJ2TYGvWtHfqb-180" target="3OqYs08iJ2TYGvWtHfqb-181" edge="1">
          <mxGeometry relative="1" as="geometry" />
        </mxCell>
        <mxCell id="3OqYs08iJ2TYGvWtHfqb-180" value="Modal" style="ellipse;whiteSpace=wrap;html=1;aspect=fixed;fillColor=#FFFFCC;" parent="1" vertex="1">
          <mxGeometry x="2210" y="575" width="80" height="80" as="geometry" />
        </mxCell>
        <mxCell id="3OqYs08iJ2TYGvWtHfqb-211" style="edgeStyle=orthogonalEdgeStyle;rounded=0;orthogonalLoop=1;jettySize=auto;html=1;" parent="1" source="3OqYs08iJ2TYGvWtHfqb-181" edge="1">
          <mxGeometry relative="1" as="geometry">
            <mxPoint x="1880" y="150" as="targetPoint" />
            <Array as="points">
              <mxPoint x="2310" y="730" />
              <mxPoint x="2310" y="150" />
            </Array>
          </mxGeometry>
        </mxCell>
        <mxCell id="3OqYs08iJ2TYGvWtHfqb-181" value="create Events&lt;div&gt;From&lt;/div&gt;" style="ellipse;whiteSpace=wrap;html=1;aspect=fixed;" parent="1" vertex="1">
          <mxGeometry x="2210" y="690" width="80" height="80" as="geometry" />
        </mxCell>
        <mxCell id="3OqYs08iJ2TYGvWtHfqb-182" value="" style="edgeStyle=orthogonalEdgeStyle;rounded=0;orthogonalLoop=1;jettySize=auto;html=1;" parent="1" source="3OqYs08iJ2TYGvWtHfqb-183" target="3OqYs08iJ2TYGvWtHfqb-185" edge="1">
          <mxGeometry relative="1" as="geometry" />
        </mxCell>
        <mxCell id="3OqYs08iJ2TYGvWtHfqb-183" value="Clock Actions" style="ellipse;whiteSpace=wrap;html=1;aspect=fixed;fillColor=#FFFFCC;" parent="1" vertex="1">
          <mxGeometry x="1920" y="465" width="80" height="80" as="geometry" />
        </mxCell>
        <mxCell id="3OqYs08iJ2TYGvWtHfqb-184" style="edgeStyle=orthogonalEdgeStyle;rounded=0;orthogonalLoop=1;jettySize=auto;html=1;" parent="1" source="3OqYs08iJ2TYGvWtHfqb-185" target="3OqYs08iJ2TYGvWtHfqb-187" edge="1">
          <mxGeometry relative="1" as="geometry" />
        </mxCell>
        <mxCell id="3OqYs08iJ2TYGvWtHfqb-185" value="Modal" style="ellipse;whiteSpace=wrap;html=1;aspect=fixed;fillColor=#FFFFCC;" parent="1" vertex="1">
          <mxGeometry x="1920" y="575" width="80" height="80" as="geometry" />
        </mxCell>
        <mxCell id="3OqYs08iJ2TYGvWtHfqb-186" value="when Clicked Create or edit" style="edgeLabel;html=1;align=center;verticalAlign=middle;resizable=0;points=[];" parent="1" vertex="1" connectable="0">
          <mxGeometry x="1960" y="560" as="geometry" />
        </mxCell>
        <mxCell id="3OqYs08iJ2TYGvWtHfqb-206" style="edgeStyle=orthogonalEdgeStyle;rounded=0;orthogonalLoop=1;jettySize=auto;html=1;" parent="1" source="3OqYs08iJ2TYGvWtHfqb-187" edge="1">
          <mxGeometry relative="1" as="geometry">
            <mxPoint x="1800" y="150" as="targetPoint" />
            <Array as="points">
              <mxPoint x="1530" y="735" />
              <mxPoint x="1530" y="150" />
            </Array>
          </mxGeometry>
        </mxCell>
        <mxCell id="3OqYs08iJ2TYGvWtHfqb-210" value="State Lift&lt;div&gt;Edit Clock&lt;/div&gt;" style="edgeLabel;html=1;align=center;verticalAlign=middle;resizable=0;points=[];" parent="3OqYs08iJ2TYGvWtHfqb-206" vertex="1" connectable="0">
          <mxGeometry x="-0.0984" y="3" relative="1" as="geometry">
            <mxPoint as="offset" />
          </mxGeometry>
        </mxCell>
        <mxCell id="3OqYs08iJ2TYGvWtHfqb-187" value="Clock Form" style="ellipse;whiteSpace=wrap;html=1;aspect=fixed;fillColor=#FFFFCC;" parent="1" vertex="1">
          <mxGeometry x="1920" y="695" width="80" height="80" as="geometry" />
        </mxCell>
        <mxCell id="3OqYs08iJ2TYGvWtHfqb-188" value="State" style="ellipse;whiteSpace=wrap;html=1;aspect=fixed;fillColor=#FFFFFF;" parent="1" vertex="1">
          <mxGeometry x="1830" y="60" width="80" height="80" as="geometry" />
        </mxCell>
        <mxCell id="3OqYs08iJ2TYGvWtHfqb-189" value="useClocks" style="ellipse;whiteSpace=wrap;html=1;aspect=fixed;fillColor=#CCFF99;" parent="1" vertex="1">
          <mxGeometry x="1060" y="500" width="80" height="80" as="geometry" />
        </mxCell>
        <mxCell id="3OqYs08iJ2TYGvWtHfqb-54" value="Modal" style="ellipse;whiteSpace=wrap;html=1;aspect=fixed;fillColor=#FFFFCC;" parent="1" vertex="1">
          <mxGeometry x="615" y="910" width="80" height="80" as="geometry" />
        </mxCell>
        <mxCell id="wbO4EIsKy-LPrH-x_eMv-1" value="Event Form" style="ellipse;whiteSpace=wrap;html=1;aspect=fixed;fillColor=#FFFFCC;" vertex="1" parent="1">
          <mxGeometry x="870" y="650" width="80" height="80" as="geometry" />
        </mxCell>
        <mxCell id="wbO4EIsKy-LPrH-x_eMv-2" style="edgeStyle=orthogonalEdgeStyle;rounded=0;orthogonalLoop=1;jettySize=auto;html=1;entryX=1.013;entryY=0.425;entryDx=0;entryDy=0;entryPerimeter=0;" edge="1" parent="1" source="3OqYs08iJ2TYGvWtHfqb-11" target="wbO4EIsKy-LPrH-x_eMv-1">
          <mxGeometry relative="1" as="geometry">
            <Array as="points">
              <mxPoint x="980" y="684" />
            </Array>
          </mxGeometry>
        </mxCell>
        <mxCell id="wbO4EIsKy-LPrH-x_eMv-5" value="" style="edgeStyle=orthogonalEdgeStyle;rounded=0;orthogonalLoop=1;jettySize=auto;html=1;" edge="1" parent="1" source="wbO4EIsKy-LPrH-x_eMv-3" target="3OqYs08iJ2TYGvWtHfqb-36">
          <mxGeometry relative="1" as="geometry" />
        </mxCell>
        <mxCell id="wbO4EIsKy-LPrH-x_eMv-3" value="Modal" style="ellipse;whiteSpace=wrap;html=1;aspect=fixed;fillColor=#FFFFCC;" vertex="1" parent="1">
          <mxGeometry x="670" y="555" width="80" height="80" as="geometry" />
        </mxCell>
        <mxCell id="wbO4EIsKy-LPrH-x_eMv-6" value="Start Event" style="ellipse;whiteSpace=wrap;html=1;aspect=fixed;fillColor=#FFFFFF;" vertex="1" parent="1">
          <mxGeometry x="515" y="810" width="80" height="80" as="geometry" />
        </mxCell>
        <mxCell id="wbO4EIsKy-LPrH-x_eMv-14" value="" style="edgeStyle=orthogonalEdgeStyle;rounded=0;orthogonalLoop=1;jettySize=auto;html=1;" edge="1" parent="1" source="wbO4EIsKy-LPrH-x_eMv-7" target="3OqYs08iJ2TYGvWtHfqb-54">
          <mxGeometry relative="1" as="geometry" />
        </mxCell>
        <mxCell id="wbO4EIsKy-LPrH-x_eMv-7" value="Edit Button" style="ellipse;whiteSpace=wrap;html=1;aspect=fixed;fillColor=#FFFFFF;" vertex="1" parent="1">
          <mxGeometry x="615" y="810" width="80" height="80" as="geometry" />
        </mxCell>
        <mxCell id="wbO4EIsKy-LPrH-x_eMv-8" value="Delete Button" style="ellipse;whiteSpace=wrap;html=1;aspect=fixed;fillColor=#FFFFFF;" vertex="1" parent="1">
          <mxGeometry x="715" y="810" width="80" height="80" as="geometry" />
        </mxCell>
        <mxCell id="wbO4EIsKy-LPrH-x_eMv-9" value="Delete All Event" style="ellipse;whiteSpace=wrap;html=1;aspect=fixed;fillColor=#FFFFFF;" vertex="1" parent="1">
          <mxGeometry x="825" y="810" width="80" height="80" as="geometry" />
        </mxCell>
        <mxCell id="wbO4EIsKy-LPrH-x_eMv-15" value="" style="edgeStyle=orthogonalEdgeStyle;rounded=0;orthogonalLoop=1;jettySize=auto;html=1;" edge="1" parent="1" source="wbO4EIsKy-LPrH-x_eMv-17" target="wbO4EIsKy-LPrH-x_eMv-21">
          <mxGeometry relative="1" as="geometry" />
        </mxCell>
        <mxCell id="wbO4EIsKy-LPrH-x_eMv-16" value="" style="edgeStyle=orthogonalEdgeStyle;rounded=0;orthogonalLoop=1;jettySize=auto;html=1;" edge="1" parent="1" source="wbO4EIsKy-LPrH-x_eMv-17" target="wbO4EIsKy-LPrH-x_eMv-23">
          <mxGeometry relative="1" as="geometry" />
        </mxCell>
        <mxCell id="wbO4EIsKy-LPrH-x_eMv-17" value="App" style="ellipse;whiteSpace=wrap;html=1;aspect=fixed;" vertex="1" parent="1">
          <mxGeometry x="2710" y="160" width="80" height="80" as="geometry" />
        </mxCell>
        <mxCell id="wbO4EIsKy-LPrH-x_eMv-18" value="" style="edgeStyle=orthogonalEdgeStyle;rounded=0;orthogonalLoop=1;jettySize=auto;html=1;" edge="1" parent="1" source="wbO4EIsKy-LPrH-x_eMv-21" target="wbO4EIsKy-LPrH-x_eMv-30">
          <mxGeometry relative="1" as="geometry" />
        </mxCell>
        <mxCell id="wbO4EIsKy-LPrH-x_eMv-19" value="" style="edgeStyle=orthogonalEdgeStyle;rounded=0;orthogonalLoop=1;jettySize=auto;html=1;" edge="1" parent="1" source="wbO4EIsKy-LPrH-x_eMv-21" target="wbO4EIsKy-LPrH-x_eMv-30">
          <mxGeometry relative="1" as="geometry" />
        </mxCell>
        <mxCell id="wbO4EIsKy-LPrH-x_eMv-20" value="" style="edgeStyle=orthogonalEdgeStyle;rounded=0;orthogonalLoop=1;jettySize=auto;html=1;" edge="1" parent="1" source="wbO4EIsKy-LPrH-x_eMv-21" target="wbO4EIsKy-LPrH-x_eMv-33">
          <mxGeometry relative="1" as="geometry" />
        </mxCell>
        <mxCell id="wbO4EIsKy-LPrH-x_eMv-21" value="Local Clock" style="ellipse;whiteSpace=wrap;html=1;aspect=fixed;" vertex="1" parent="1">
          <mxGeometry x="2510" y="260" width="80" height="80" as="geometry" />
        </mxCell>
        <mxCell id="wbO4EIsKy-LPrH-x_eMv-22" value="" style="edgeStyle=orthogonalEdgeStyle;rounded=0;orthogonalLoop=1;jettySize=auto;html=1;" edge="1" parent="1" source="wbO4EIsKy-LPrH-x_eMv-23" target="wbO4EIsKy-LPrH-x_eMv-38">
          <mxGeometry relative="1" as="geometry" />
        </mxCell>
        <mxCell id="wbO4EIsKy-LPrH-x_eMv-23" value="Clock List" style="ellipse;whiteSpace=wrap;html=1;aspect=fixed;" vertex="1" parent="1">
          <mxGeometry x="2910" y="250" width="80" height="80" as="geometry" />
        </mxCell>
        <mxCell id="wbO4EIsKy-LPrH-x_eMv-24" style="edgeStyle=orthogonalEdgeStyle;rounded=0;orthogonalLoop=1;jettySize=auto;html=1;" edge="1" parent="1" source="wbO4EIsKy-LPrH-x_eMv-25" target="wbO4EIsKy-LPrH-x_eMv-47">
          <mxGeometry relative="1" as="geometry" />
        </mxCell>
        <mxCell id="wbO4EIsKy-LPrH-x_eMv-25" value="Modal" style="ellipse;whiteSpace=wrap;html=1;aspect=fixed;fillColor=#FFFFCC;" vertex="1" parent="1">
          <mxGeometry x="2560" y="530" width="80" height="80" as="geometry" />
        </mxCell>
        <mxCell id="wbO4EIsKy-LPrH-x_eMv-30" value="Clock Display &amp;amp; Labels" style="ellipse;whiteSpace=wrap;html=1;aspect=fixed;fillColor=#FFFFCC;" vertex="1" parent="1">
          <mxGeometry x="2460" y="410" width="80" height="80" as="geometry" />
        </mxCell>
        <mxCell id="wbO4EIsKy-LPrH-x_eMv-31" value="" style="edgeStyle=orthogonalEdgeStyle;rounded=0;orthogonalLoop=1;jettySize=auto;html=1;" edge="1" parent="1" source="wbO4EIsKy-LPrH-x_eMv-33" target="wbO4EIsKy-LPrH-x_eMv-25">
          <mxGeometry relative="1" as="geometry" />
        </mxCell>
        <mxCell id="wbO4EIsKy-LPrH-x_eMv-32" value="when Clicked Create or edit" style="edgeLabel;html=1;align=center;verticalAlign=middle;resizable=0;points=[];" vertex="1" connectable="0" parent="wbO4EIsKy-LPrH-x_eMv-31">
          <mxGeometry x="-0.55" y="1" relative="1" as="geometry">
            <mxPoint x="-1" y="11" as="offset" />
          </mxGeometry>
        </mxCell>
        <mxCell id="wbO4EIsKy-LPrH-x_eMv-33" value="Clock Actions" style="ellipse;whiteSpace=wrap;html=1;aspect=fixed;fillColor=#FFFFCC;" vertex="1" parent="1">
          <mxGeometry x="2560" y="410" width="80" height="80" as="geometry" />
        </mxCell>
        <mxCell id="wbO4EIsKy-LPrH-x_eMv-34" value="" style="edgeStyle=orthogonalEdgeStyle;rounded=0;orthogonalLoop=1;jettySize=auto;html=1;" edge="1" parent="1" source="wbO4EIsKy-LPrH-x_eMv-38" target="wbO4EIsKy-LPrH-x_eMv-39">
          <mxGeometry relative="1" as="geometry" />
        </mxCell>
        <mxCell id="wbO4EIsKy-LPrH-x_eMv-35" style="edgeStyle=orthogonalEdgeStyle;rounded=0;orthogonalLoop=1;jettySize=auto;html=1;entryX=0.5;entryY=0;entryDx=0;entryDy=0;" edge="1" parent="1" source="wbO4EIsKy-LPrH-x_eMv-38" target="wbO4EIsKy-LPrH-x_eMv-51">
          <mxGeometry relative="1" as="geometry" />
        </mxCell>
        <mxCell id="wbO4EIsKy-LPrH-x_eMv-36" style="edgeStyle=orthogonalEdgeStyle;rounded=0;orthogonalLoop=1;jettySize=auto;html=1;entryX=0.5;entryY=0;entryDx=0;entryDy=0;" edge="1" parent="1" source="wbO4EIsKy-LPrH-x_eMv-38" target="wbO4EIsKy-LPrH-x_eMv-56">
          <mxGeometry relative="1" as="geometry" />
        </mxCell>
        <mxCell id="wbO4EIsKy-LPrH-x_eMv-37" style="edgeStyle=orthogonalEdgeStyle;rounded=0;orthogonalLoop=1;jettySize=auto;html=1;" edge="1" parent="1" source="wbO4EIsKy-LPrH-x_eMv-38" target="wbO4EIsKy-LPrH-x_eMv-41">
          <mxGeometry relative="1" as="geometry" />
        </mxCell>
        <mxCell id="wbO4EIsKy-LPrH-x_eMv-38" value="Clock list&amp;nbsp; &amp;nbsp;&lt;div&gt;item&lt;/div&gt;" style="ellipse;whiteSpace=wrap;html=1;aspect=fixed;" vertex="1" parent="1">
          <mxGeometry x="2910" y="370" width="80" height="80" as="geometry" />
        </mxCell>
        <mxCell id="wbO4EIsKy-LPrH-x_eMv-39" value="Clock Display &amp;amp; Labels" style="ellipse;whiteSpace=wrap;html=1;aspect=fixed;fillColor=#FFFFCC;" vertex="1" parent="1">
          <mxGeometry x="2710" y="515" width="80" height="80" as="geometry" />
        </mxCell>
        <mxCell id="wbO4EIsKy-LPrH-x_eMv-40" style="edgeStyle=orthogonalEdgeStyle;rounded=0;orthogonalLoop=1;jettySize=auto;html=1;entryX=0.5;entryY=0;entryDx=0;entryDy=0;" edge="1" parent="1" source="wbO4EIsKy-LPrH-x_eMv-41" target="wbO4EIsKy-LPrH-x_eMv-65">
          <mxGeometry relative="1" as="geometry" />
        </mxCell>
        <mxCell id="wbO4EIsKy-LPrH-x_eMv-41" value="Show Event" style="ellipse;whiteSpace=wrap;html=1;aspect=fixed;" vertex="1" parent="1">
          <mxGeometry x="3100" y="510" width="80" height="80" as="geometry" />
        </mxCell>
        <mxCell id="wbO4EIsKy-LPrH-x_eMv-42" style="edgeStyle=orthogonalEdgeStyle;rounded=0;orthogonalLoop=1;jettySize=auto;html=1;entryX=0.5;entryY=0;entryDx=0;entryDy=0;" edge="1" parent="1" source="wbO4EIsKy-LPrH-x_eMv-46" target="wbO4EIsKy-LPrH-x_eMv-68">
          <mxGeometry relative="1" as="geometry" />
        </mxCell>
        <mxCell id="wbO4EIsKy-LPrH-x_eMv-43" style="edgeStyle=orthogonalEdgeStyle;rounded=0;orthogonalLoop=1;jettySize=auto;html=1;entryX=0.5;entryY=0;entryDx=0;entryDy=0;" edge="1" parent="1" source="wbO4EIsKy-LPrH-x_eMv-46" target="wbO4EIsKy-LPrH-x_eMv-69">
          <mxGeometry relative="1" as="geometry" />
        </mxCell>
        <mxCell id="wbO4EIsKy-LPrH-x_eMv-44" style="edgeStyle=orthogonalEdgeStyle;rounded=0;orthogonalLoop=1;jettySize=auto;html=1;" edge="1" parent="1" source="wbO4EIsKy-LPrH-x_eMv-46" target="wbO4EIsKy-LPrH-x_eMv-66">
          <mxGeometry relative="1" as="geometry">
            <Array as="points">
              <mxPoint x="3140" y="850" />
              <mxPoint x="2985" y="850" />
            </Array>
          </mxGeometry>
        </mxCell>
        <mxCell id="wbO4EIsKy-LPrH-x_eMv-45" style="edgeStyle=orthogonalEdgeStyle;rounded=0;orthogonalLoop=1;jettySize=auto;html=1;entryX=0.5;entryY=0;entryDx=0;entryDy=0;" edge="1" parent="1" source="wbO4EIsKy-LPrH-x_eMv-46" target="wbO4EIsKy-LPrH-x_eMv-70">
          <mxGeometry relative="1" as="geometry">
            <Array as="points">
              <mxPoint x="3140" y="850" />
              <mxPoint x="3295" y="850" />
            </Array>
          </mxGeometry>
        </mxCell>
        <mxCell id="wbO4EIsKy-LPrH-x_eMv-46" value="Event Item" style="ellipse;whiteSpace=wrap;html=1;aspect=fixed;" vertex="1" parent="1">
          <mxGeometry x="3100" y="740" width="80" height="80" as="geometry" />
        </mxCell>
        <mxCell id="wbO4EIsKy-LPrH-x_eMv-47" value="Clock Form" style="ellipse;whiteSpace=wrap;html=1;aspect=fixed;fillColor=#FFFFCC;" vertex="1" parent="1">
          <mxGeometry x="2560" y="690" width="80" height="80" as="geometry" />
        </mxCell>
        <mxCell id="wbO4EIsKy-LPrH-x_eMv-48" style="edgeStyle=orthogonalEdgeStyle;rounded=0;orthogonalLoop=1;jettySize=auto;html=1;" edge="1" parent="1" source="wbO4EIsKy-LPrH-x_eMv-62" target="wbO4EIsKy-LPrH-x_eMv-49">
          <mxGeometry relative="1" as="geometry" />
        </mxCell>
        <mxCell id="wbO4EIsKy-LPrH-x_eMv-49" value="Event Form" style="ellipse;whiteSpace=wrap;html=1;aspect=fixed;fillColor=#FFFFCC;" vertex="1" parent="1">
          <mxGeometry x="3045" y="1080" width="80" height="80" as="geometry" />
        </mxCell>
        <mxCell id="wbO4EIsKy-LPrH-x_eMv-50" value="" style="edgeStyle=orthogonalEdgeStyle;rounded=0;orthogonalLoop=1;jettySize=auto;html=1;" edge="1" parent="1" source="wbO4EIsKy-LPrH-x_eMv-51" target="wbO4EIsKy-LPrH-x_eMv-53">
          <mxGeometry relative="1" as="geometry" />
        </mxCell>
        <mxCell id="wbO4EIsKy-LPrH-x_eMv-51" value="create Events" style="ellipse;whiteSpace=wrap;html=1;aspect=fixed;" vertex="1" parent="1">
          <mxGeometry x="2980" y="515" width="80" height="80" as="geometry" />
        </mxCell>
        <mxCell id="wbO4EIsKy-LPrH-x_eMv-52" value="" style="edgeStyle=orthogonalEdgeStyle;rounded=0;orthogonalLoop=1;jettySize=auto;html=1;" edge="1" parent="1" source="wbO4EIsKy-LPrH-x_eMv-53" target="wbO4EIsKy-LPrH-x_eMv-54">
          <mxGeometry relative="1" as="geometry" />
        </mxCell>
        <mxCell id="wbO4EIsKy-LPrH-x_eMv-53" value="Modal" style="ellipse;whiteSpace=wrap;html=1;aspect=fixed;fillColor=#FFFFCC;" vertex="1" parent="1">
          <mxGeometry x="2980" y="625" width="80" height="80" as="geometry" />
        </mxCell>
        <mxCell id="wbO4EIsKy-LPrH-x_eMv-54" value="Event Form" style="ellipse;whiteSpace=wrap;html=1;aspect=fixed;fillColor=#FFFFCC;" vertex="1" parent="1">
          <mxGeometry x="2980" y="740" width="80" height="80" as="geometry" />
        </mxCell>
        <mxCell id="wbO4EIsKy-LPrH-x_eMv-55" value="" style="edgeStyle=orthogonalEdgeStyle;rounded=0;orthogonalLoop=1;jettySize=auto;html=1;" edge="1" parent="1" source="wbO4EIsKy-LPrH-x_eMv-56" target="wbO4EIsKy-LPrH-x_eMv-58">
          <mxGeometry relative="1" as="geometry" />
        </mxCell>
        <mxCell id="wbO4EIsKy-LPrH-x_eMv-56" value="Clock Actions" style="ellipse;whiteSpace=wrap;html=1;aspect=fixed;fillColor=#FFFFCC;" vertex="1" parent="1">
          <mxGeometry x="2830" y="515" width="80" height="80" as="geometry" />
        </mxCell>
        <mxCell id="wbO4EIsKy-LPrH-x_eMv-57" style="edgeStyle=orthogonalEdgeStyle;rounded=0;orthogonalLoop=1;jettySize=auto;html=1;" edge="1" parent="1" source="wbO4EIsKy-LPrH-x_eMv-58" target="wbO4EIsKy-LPrH-x_eMv-60">
          <mxGeometry relative="1" as="geometry" />
        </mxCell>
        <mxCell id="wbO4EIsKy-LPrH-x_eMv-58" value="Modal" style="ellipse;whiteSpace=wrap;html=1;aspect=fixed;fillColor=#FFFFCC;" vertex="1" parent="1">
          <mxGeometry x="2830" y="625" width="80" height="80" as="geometry" />
        </mxCell>
        <mxCell id="wbO4EIsKy-LPrH-x_eMv-59" value="when Clicked Create or edit" style="edgeLabel;html=1;align=center;verticalAlign=middle;resizable=0;points=[];" vertex="1" connectable="0" parent="1">
          <mxGeometry x="2870" y="610" as="geometry" />
        </mxCell>
        <mxCell id="wbO4EIsKy-LPrH-x_eMv-60" value="Clock Form" style="ellipse;whiteSpace=wrap;html=1;aspect=fixed;fillColor=#FFFFCC;" vertex="1" parent="1">
          <mxGeometry x="2830" y="745" width="80" height="80" as="geometry" />
        </mxCell>
        <mxCell id="wbO4EIsKy-LPrH-x_eMv-61" value="useApp" style="ellipse;whiteSpace=wrap;html=1;aspect=fixed;fillColor=#CCFF99;" vertex="1" parent="1">
          <mxGeometry x="2740" y="110" width="80" height="80" as="geometry" />
        </mxCell>
        <mxCell id="wbO4EIsKy-LPrH-x_eMv-62" value="Modal" style="ellipse;whiteSpace=wrap;html=1;aspect=fixed;fillColor=#FFFFCC;" vertex="1" parent="1">
          <mxGeometry x="3045" y="980" width="80" height="80" as="geometry" />
        </mxCell>
        <mxCell id="wbO4EIsKy-LPrH-x_eMv-64" value="" style="edgeStyle=orthogonalEdgeStyle;rounded=0;orthogonalLoop=1;jettySize=auto;html=1;" edge="1" parent="1" source="wbO4EIsKy-LPrH-x_eMv-65" target="wbO4EIsKy-LPrH-x_eMv-46">
          <mxGeometry relative="1" as="geometry" />
        </mxCell>
        <mxCell id="wbO4EIsKy-LPrH-x_eMv-65" value="Modal" style="ellipse;whiteSpace=wrap;html=1;aspect=fixed;fillColor=#FFFFCC;" vertex="1" parent="1">
          <mxGeometry x="3100" y="625" width="80" height="80" as="geometry" />
        </mxCell>
        <mxCell id="wbO4EIsKy-LPrH-x_eMv-66" value="Start Event" style="ellipse;whiteSpace=wrap;html=1;aspect=fixed;fillColor=#FFFFFF;" vertex="1" parent="1">
          <mxGeometry x="2945" y="880" width="80" height="80" as="geometry" />
        </mxCell>
        <mxCell id="wbO4EIsKy-LPrH-x_eMv-67" value="" style="edgeStyle=orthogonalEdgeStyle;rounded=0;orthogonalLoop=1;jettySize=auto;html=1;" edge="1" parent="1" source="wbO4EIsKy-LPrH-x_eMv-68" target="wbO4EIsKy-LPrH-x_eMv-62">
          <mxGeometry relative="1" as="geometry" />
        </mxCell>
        <mxCell id="wbO4EIsKy-LPrH-x_eMv-68" value="Edit Button" style="ellipse;whiteSpace=wrap;html=1;aspect=fixed;fillColor=#FFFFFF;" vertex="1" parent="1">
          <mxGeometry x="3045" y="880" width="80" height="80" as="geometry" />
        </mxCell>
        <mxCell id="wbO4EIsKy-LPrH-x_eMv-69" value="Delete Button" style="ellipse;whiteSpace=wrap;html=1;aspect=fixed;fillColor=#FFFFFF;" vertex="1" parent="1">
          <mxGeometry x="3145" y="880" width="80" height="80" as="geometry" />
        </mxCell>
        <mxCell id="wbO4EIsKy-LPrH-x_eMv-70" value="Delete All Event" style="ellipse;whiteSpace=wrap;html=1;aspect=fixed;fillColor=#FFFFFF;" vertex="1" parent="1">
          <mxGeometry x="3255" y="880" width="80" height="80" as="geometry" />
        </mxCell>
      </root>
    </mxGraphModel>
  </diagram>
</mxfile>
